<svg width="152" height="24" viewBox="0 0 152 24" fill="none" xmlns="http://www.w3.org/2000/svg">
<path d="M9.824 23.16C9.184 23.16 8.672 22.9787 8.288 22.616C7.92533 22.232 7.744 21.7307 7.744 21.112V3.832H1.92C0.64 3.832 0 3.26667 0 2.136C0 1.00533 0.64 0.439999 1.92 0.439999H17.696C18.976 0.439999 19.616 1.00533 19.616 2.136C19.616 3.26667 18.976 3.832 17.696 3.832H11.872V21.112C11.872 21.7307 11.68 22.232 11.296 22.616C10.9333 22.9787 10.4427 23.16 9.824 23.16ZM27.941 7.032C28.4957 6.98933 28.933 7.10667 29.253 7.384C29.573 7.66133 29.733 8.07733 29.733 8.632C29.733 9.208 29.5943 9.63467 29.317 9.912C29.0397 10.1893 28.5383 10.3707 27.813 10.456L26.853 10.552C25.5943 10.68 24.6663 11.1067 24.069 11.832C23.493 12.5573 23.205 13.464 23.205 14.552V21.272C23.205 21.8907 23.013 22.3707 22.629 22.712C22.245 23.032 21.765 23.192 21.189 23.192C20.613 23.192 20.133 23.032 19.749 22.712C19.3863 22.3707 19.205 21.8907 19.205 21.272V8.888C19.205 8.29067 19.3863 7.832 19.749 7.512C20.133 7.192 20.6023 7.032 21.157 7.032C21.7117 7.032 22.1597 7.192 22.501 7.512C22.8423 7.81067 23.013 8.248 23.013 8.824V10.104C23.4183 9.16533 24.0157 8.44 24.805 7.928C25.6157 7.416 26.5117 7.128 27.493 7.064L27.941 7.032ZM38.1765 6.968C40.3525 6.968 41.9632 7.512 43.0085 8.6C44.0752 9.66667 44.6085 11.2987 44.6085 13.496V21.304C44.6085 21.88 44.4378 22.3387 44.0965 22.68C43.7552 23 43.2858 23.16 42.6885 23.16C42.1338 23.16 41.6752 22.9893 41.3125 22.648C40.9712 22.3067 40.8005 21.8587 40.8005 21.304V20.6C40.4378 21.432 39.8618 22.0827 39.0725 22.552C38.3045 23.0213 37.4085 23.256 36.3845 23.256C35.3392 23.256 34.3898 23.0427 33.5365 22.616C32.6832 22.1893 32.0112 21.6027 31.5205 20.856C31.0298 20.1093 30.7845 19.2773 30.7845 18.36C30.7845 17.208 31.0725 16.3013 31.6485 15.64C32.2458 14.9787 33.2058 14.4987 34.5285 14.2C35.8512 13.9013 37.6752 13.752 40.0005 13.752H40.8005V13.016C40.8005 11.9707 40.5765 11.2133 40.1285 10.744C39.6805 10.2533 38.9552 10.008 37.9525 10.008C37.3338 10.008 36.7045 10.104 36.0645 10.296C35.4245 10.4667 34.6672 10.7227 33.7925 11.064C33.2378 11.3413 32.8325 11.48 32.5765 11.48C32.1925 11.48 31.8725 11.3413 31.6165 11.064C31.3818 10.7867 31.2645 10.424 31.2645 9.976C31.2645 9.61333 31.3498 9.304 31.5205 9.048C31.7125 8.77067 32.0218 8.51467 32.4485 8.28C33.1952 7.87467 34.0805 7.55467 35.1045 7.32C36.1498 7.08533 37.1738 6.968 38.1765 6.968ZM37.1845 20.376C38.2512 20.376 39.1152 20.024 39.7765 19.32C40.4592 18.5947 40.8005 17.6667 40.8005 16.536V15.864H40.2245C38.7952 15.864 37.6858 15.928 36.8965 16.056C36.1072 16.184 35.5418 16.408 35.2005 16.728C34.8592 17.048 34.6885 17.4853 34.6885 18.04C34.6885 18.7227 34.9232 19.288 35.3925 19.736C35.8832 20.1627 36.4805 20.376 37.1845 20.376ZM59.5858 8.184C59.7564 7.8 59.9804 7.512 60.2578 7.32C60.5564 7.128 60.8764 7.032 61.2178 7.032C61.7084 7.032 62.1458 7.20267 62.5298 7.544C62.9351 7.864 63.1378 8.26933 63.1378 8.76C63.1378 9.016 63.0738 9.272 62.9458 9.528L57.0258 21.912C56.8338 22.3173 56.5564 22.6267 56.1938 22.84C55.8524 23.0533 55.4684 23.16 55.0417 23.16C54.6364 23.16 54.2418 23.0533 53.8578 22.84C53.4951 22.6267 53.2178 22.3173 53.0258 21.912L47.0738 9.528C46.9671 9.31467 46.9138 9.06933 46.9138 8.792C46.9138 8.30133 47.1164 7.88533 47.5218 7.544C47.9484 7.20267 48.4284 7.032 48.9618 7.032C49.7298 7.032 50.2951 7.40533 50.6578 8.152L55.1378 18.04L59.5858 8.184ZM77.6515 18.712C78.0142 18.712 78.3022 18.8507 78.5155 19.128C78.7502 19.4053 78.8675 19.7787 78.8675 20.248C78.8675 20.9093 78.4728 21.464 77.6835 21.912C76.9582 22.3173 76.1368 22.648 75.2195 22.904C74.3022 23.1387 73.4275 23.256 72.5955 23.256C70.0782 23.256 68.0835 22.5307 66.6115 21.08C65.1395 19.6293 64.4035 17.6453 64.4035 15.128C64.4035 13.528 64.7235 12.1093 65.3635 10.872C66.0035 9.63467 66.8995 8.67467 68.0515 7.992C69.2248 7.30933 70.5475 6.968 72.0195 6.968C73.4275 6.968 74.6542 7.27733 75.6995 7.896C76.7448 8.51467 77.5555 9.38933 78.1315 10.52C78.7075 11.6507 78.9955 12.984 78.9955 14.52C78.9955 15.4373 78.5902 15.896 77.7795 15.896H68.3395C68.4675 17.368 68.8835 18.456 69.5875 19.16C70.2915 19.8427 71.3155 20.184 72.6595 20.184C73.3422 20.184 73.9395 20.0987 74.4515 19.928C74.9848 19.7573 75.5822 19.5227 76.2435 19.224C76.8835 18.8827 77.3528 18.712 77.6515 18.712ZM72.1155 9.784C71.0275 9.784 70.1528 10.1253 69.4915 10.808C68.8515 11.4907 68.4675 12.472 68.3395 13.752H75.5715C75.5288 12.4507 75.2088 11.4693 74.6115 10.808C74.0142 10.1253 73.1822 9.784 72.1155 9.784ZM84.2515 23.192C83.6755 23.192 83.1955 23.032 82.8115 22.712C82.4488 22.3707 82.2675 21.8907 82.2675 21.272V2.168C82.2675 1.54933 82.4488 1.08 82.8115 0.759998C83.1955 0.439999 83.6755 0.279999 84.2515 0.279999C84.8275 0.279999 85.3075 0.439999 85.6915 0.759998C86.0755 1.08 86.2675 1.54933 86.2675 2.168V21.272C86.2675 21.8907 86.0755 22.3707 85.6915 22.712C85.3075 23.032 84.8275 23.192 84.2515 23.192Z" fill="#FBB667"/>
<path d="M99.4805 6.968C101.358 6.968 102.755 7.50133 103.673 8.568C104.59 9.63467 105.049 11.2453 105.049 13.4V21.272C105.049 21.8693 104.867 22.3387 104.505 22.68C104.163 23.0213 103.683 23.192 103.065 23.192C102.446 23.192 101.955 23.0213 101.593 22.68C101.23 22.3387 101.049 21.8693 101.049 21.272V13.624C101.049 12.408 100.814 11.5227 100.345 10.968C99.8965 10.4133 99.1818 10.136 98.2005 10.136C97.0485 10.136 96.1205 10.4987 95.4165 11.224C94.7338 11.9493 94.3925 12.92 94.3925 14.136V21.272C94.3925 21.8693 94.2112 22.3387 93.8485 22.68C93.4858 23.0213 92.9952 23.192 92.3765 23.192C91.7578 23.192 91.2672 23.0213 90.9045 22.68C90.5632 22.3387 90.3925 21.8693 90.3925 21.272V8.888C90.3925 8.33333 90.5738 7.88533 90.9365 7.544C91.2992 7.20267 91.7898 7.032 92.4085 7.032C92.9632 7.032 93.4112 7.20267 93.7525 7.544C94.1152 7.864 94.2965 8.29067 94.2965 8.824V9.688C94.8298 8.81333 95.5445 8.14133 96.4405 7.672C97.3365 7.20267 98.3498 6.968 99.4805 6.968ZM116.247 23.256C114.647 23.256 113.239 22.9253 112.023 22.264C110.829 21.6027 109.901 20.6533 109.239 19.416C108.578 18.1787 108.247 16.7387 108.247 15.096C108.247 13.4533 108.578 12.024 109.239 10.808C109.901 9.57067 110.829 8.62133 112.023 7.96C113.239 7.29867 114.647 6.968 116.247 6.968C117.847 6.968 119.245 7.29867 120.439 7.96C121.655 8.62133 122.583 9.57067 123.223 10.808C123.885 12.024 124.215 13.4533 124.215 15.096C124.215 16.7387 123.885 18.1787 123.223 19.416C122.583 20.6533 121.655 21.6027 120.439 22.264C119.245 22.9253 117.847 23.256 116.247 23.256ZM116.215 20.152C117.517 20.152 118.509 19.7253 119.191 18.872C119.874 18.0187 120.215 16.76 120.215 15.096C120.215 13.4533 119.874 12.2053 119.191 11.352C118.509 10.4773 117.527 10.04 116.247 10.04C114.967 10.04 113.975 10.4773 113.271 11.352C112.589 12.2053 112.247 13.4533 112.247 15.096C112.247 16.76 112.589 18.0187 113.271 18.872C113.954 19.7253 114.935 20.152 116.215 20.152ZM148.42 8.216C148.569 7.832 148.782 7.544 149.06 7.352C149.358 7.16 149.678 7.064 150.02 7.064C150.51 7.064 150.948 7.23467 151.332 7.576C151.737 7.896 151.94 8.30133 151.94 8.792C151.94 9.06933 151.886 9.31467 151.78 9.528L146.5 21.912C146.329 22.3173 146.062 22.6267 145.7 22.84C145.358 23.0533 144.974 23.16 144.548 23.16C144.142 23.16 143.758 23.0533 143.396 22.84C143.054 22.6267 142.798 22.3173 142.628 21.912L138.82 12.76L135.14 21.912C134.969 22.3173 134.702 22.6267 134.34 22.84C133.998 23.0533 133.614 23.16 133.188 23.16C132.782 23.16 132.398 23.0533 132.036 22.84C131.673 22.6267 131.406 22.3173 131.236 21.912L125.988 9.528C125.881 9.25067 125.828 9.016 125.828 8.824C125.828 8.33333 126.041 7.91733 126.468 7.576C126.894 7.21333 127.364 7.032 127.876 7.032C128.238 7.032 128.569 7.128 128.868 7.32C129.166 7.512 129.39 7.8 129.54 8.184L133.316 17.944L137.188 8.28C137.358 7.87467 137.604 7.576 137.924 7.384C138.244 7.17067 138.596 7.064 138.98 7.064C139.364 7.064 139.716 7.17067 140.036 7.384C140.356 7.576 140.601 7.87467 140.772 8.28L144.676 17.976L148.42 8.216Z" fill="#0F214F"/>
</svg>
